<svg width="45" height="42" viewBox="0 0 45 42" fill="none" xmlns="http://www.w3.org/2000/svg">
<rect x="0.5" y="0.5" width="44" height="41" fill="#219CBA" stroke="#219CBA"/>
<path d="M30.23 24.26L27.69 23.97C27.3914 23.9349 27.0886 23.968 26.8046 24.0667C26.5206 24.1654 26.2626 24.3273 26.05 24.54L24.21 26.38C21.3712 24.9362 19.0638 22.6288 17.62 19.79L19.47 17.94C19.9 17.51 20.11 16.91 20.04 16.3L19.75 13.78C19.6933 13.2922 19.4592 12.8422 19.0923 12.5159C18.7253 12.1895 18.2511 12.0094 17.76 12.01H16.03C14.9 12.01 13.96 12.95 14.03 14.08C14.56 22.62 21.39 29.44 29.92 29.97C31.05 30.04 31.99 29.1 31.99 27.97V26.24C32 25.23 31.24 24.38 30.23 24.26Z" fill="white"/>
</svg>
